<?xml version="1.0" encoding="utf-8"?>
<!-- Generator: Adobe Illustrator 24.1.0, SVG Export Plug-In . SVG Version: 6.00 Build 0)  -->
<svg version="1.1" id="Layer_1" xmlns="http://www.w3.org/2000/svg" xmlns:xlink="http://www.w3.org/1999/xlink" x="0px" y="0px"
	 viewBox="0 0 479.6 199.1" style="enable-background:new 0 0 479.6 199.1;" xml:space="preserve">
<style type="text/css">
	.st0{fill:#FFDB78;}
	.st1{fill:#F3B948;}
	.st2{fill:#F7941D;}
	.st3{fill:#6E92A3;stroke:#6E92A3;stroke-width:1.6;}
	.st4{fill:#D68119;stroke:#D68119;stroke-width:0.25;}
</style>
<path class="st0" d="M193.2,19.2c0,0,29.1,15.1,89.2,15.1c0,0-76.5,6-85.6,5C187.7,38.3,193.2,19.2,193.2,19.2z"/>
<path class="st1" d="M171.8,28.8c0,0,43.3,22.4,132.7,22.4c0,0-113.8,9-127.3,7.5C163.7,57.2,171.8,28.8,171.8,28.8z"/>
<path class="st2" d="M152.8,44c0,0,56,29,171.6,29c0,0-147.1,11.6-164.6,9.7C142.3,80.7,152.8,44,152.8,44z"/>
<g>
	<g>
		<path class="st3" d="M27.4,119.7h-8.7v-2.9h21v2.9h-8.7V143h-3.5V119.7z"/>
		<path class="st3" d="M43.8,116.8H47v10H47c1-2.3,3.7-3.2,6-3.2c5,0,6.5,2.9,6.5,6.9V143h-3.1v-12.9c0-2.3-1.5-3.8-3.9-3.8
			c-3.8,0-5.6,2.5-5.6,6V143h-3.1V116.8z"/>
		<path class="st3" d="M81.2,137c-0.8,4.2-3.9,6.5-8.1,6.5c-6.1,0-8.9-4.2-9.1-10c0-5.7,3.7-9.9,8.9-9.9c6.7,0,8.8,6.3,8.6,10.9
			H67.3c-0.1,3.3,1.8,6.2,5.9,6.2c2.6,0,4.4-1.2,4.9-3.7H81.2z M78.2,131.7c-0.1-3-2.4-5.4-5.5-5.4c-3.3,0-5.2,2.5-5.4,5.4H78.2z"/>
		<path class="st3" d="M96.9,116.8h3.5v23.3h13.9v2.9H96.9V116.8z"/>
		<path class="st3" d="M135.5,142.9c-0.6,0.3-1.2,0.5-2.2,0.5c-1.6,0-2.6-0.9-2.6-2.9c-1.7,2-4,2.9-6.7,2.9c-3.5,0-6.3-1.5-6.3-5.3
			c0-4.3,3.2-5.2,6.4-5.8c3.5-0.7,6.4-0.4,6.4-2.8c0-2.7-2.2-3.2-4.2-3.2c-2.6,0-4.6,0.8-4.7,3.6h-3.1c0.2-4.7,3.8-6.4,8-6.4
			c3.4,0,7.1,0.8,7.1,5.2v9.8c0,1.5,0,2.1,1,2.1c0.3,0,0.6,0,1-0.2V142.9z M130.4,133.2c-1.2,0.9-3.6,0.9-5.7,1.3
			c-2.1,0.4-3.8,1.1-3.8,3.4c0,2.1,1.8,2.8,3.7,2.8c4.1,0,5.8-2.6,5.8-4.3V133.2z"/>
		<path class="st3" d="M139.2,116.8h3.1v9.8h0.1c1-2.1,3.5-3,6.1-3c5.8,0,8.7,4.6,8.7,10c0,5.4-2.9,9.9-8.7,9.9c-2,0-4.7-0.7-6.1-3
			h-0.1v2.5h-3.1V116.8z M148,126.3c-4.2,0-5.8,3.6-5.8,7.2c0,3.7,1.7,7.2,6,7.2c4.3,0,5.7-3.6,5.7-7.3
			C153.9,129.8,152.1,126.3,148,126.3z"/>
		<path class="st3" d="M169.8,123.6c6,0,9.2,4.4,9.2,10c0,5.5-3.2,9.9-9.2,9.9c-6,0-9.2-4.4-9.2-9.9
			C160.6,127.9,163.8,123.6,169.8,123.6z M169.8,140.7c3.3,0,5.9-2.6,5.9-7.2c0-4.6-2.6-7.2-5.9-7.2c-3.3,0-5.9,2.6-5.9,7.2
			C163.9,138.1,166.6,140.7,169.8,140.7z"/>
		<path class="st3" d="M199.2,143h-2.9v-3h-0.1c-1.3,2.4-3.5,3.5-6.2,3.5c-5,0-6.5-2.9-6.5-6.9V124h3.1v12.9c0,2.3,1.5,3.8,3.9,3.8
			c3.8,0,5.6-2.5,5.6-5.9V124h3.1V143z"/>
		<path class="st3" d="M204.5,124h2.9v4h0.1c1.5-3,3.6-4.6,7-4.4v3.3c-5,0-6.9,2.9-6.9,7.7v8.5h-3.1V124z"/>
		<path class="st3" d="M229.1,116.8h4.8l8.3,22l8.3-22h4.8V143H252v-21.8h-0.1l-8.2,21.8h-3l-8.2-21.8h-0.1V143h-3.3V116.8z"/>
		<path class="st3" d="M278.1,142.9c-0.5,0.3-1.2,0.5-2.2,0.5c-1.6,0-2.6-0.9-2.6-2.9c-1.7,2-4,2.9-6.7,2.9c-3.4,0-6.3-1.5-6.3-5.3
			c0-4.3,3.2-5.2,6.4-5.8c3.5-0.7,6.4-0.4,6.4-2.8c0-2.7-2.2-3.2-4.2-3.2c-2.6,0-4.6,0.8-4.7,3.6H261c0.2-4.7,3.8-6.4,8-6.4
			c3.4,0,7.1,0.8,7.1,5.2v9.8c0,1.5,0,2.1,1,2.1c0.3,0,0.6,0,1-0.2V142.9z M273.1,133.2c-1.2,0.9-3.6,0.9-5.7,1.3
			c-2.1,0.4-3.8,1.1-3.8,3.4c0,2.1,1.8,2.8,3.7,2.8c4.1,0,5.8-2.6,5.8-4.3V133.2z"/>
		<path class="st3" d="M281.7,124h2.9v4h0.1c1.5-3,3.6-4.6,7-4.4v3.3c-5,0-6.9,2.9-6.9,7.7v8.5h-3.1V124z"/>
		<path class="st3" d="M294.9,116.8h3.1v15.5l8.7-8.3h4.2l-7.5,6.9l8.1,12.1h-4l-6.5-9.9l-2.9,2.7v7.2h-3.1V116.8z"/>
		<path class="st3" d="M330.7,137c-0.9,4.2-3.9,6.5-8.1,6.5c-6.1,0-8.9-4.2-9.1-10c0-5.7,3.8-9.9,8.9-9.9c6.7,0,8.8,6.3,8.6,10.9
			h-14.2c-0.1,3.3,1.8,6.2,5.9,6.2c2.6,0,4.4-1.2,4.9-3.7H330.7z M327.7,131.7c-0.2-3-2.4-5.4-5.5-5.4c-3.3,0-5.2,2.5-5.4,5.4H327.7
			z"/>
		<path class="st3" d="M339.3,124h3.8v2.8h-3.8v11.8c0,1.4,0.4,1.7,2.4,1.7h1.4v2.8h-2.4c-3.2,0-4.5-0.7-4.5-4.2v-12.1H333V124h3.2
			v-5.7h3.1V124z"/>
		<path class="st3" d="M378.4,139.7c-2,2.8-5.3,3.9-8.4,3.9c-7.8,0-12.5-6.4-12.5-13.2c0-7.6,4.2-14.3,12.5-14.3
			c5.7,0,10.3,2.6,11.3,8.7h-3.5c-0.7-4-3.9-5.8-7.8-5.8c-6.4,0-9,5.5-9,11.1c0,5.5,3.2,10.5,9,10.5c5.4,0,8.6-3.8,8.4-8.6H370v-2.9
			h11.5V143h-2.2L378.4,139.7z"/>
		<path class="st3" d="M386.8,124h2.9v4h0.1c1.5-3,3.6-4.6,7-4.4v3.3c-5,0-6.9,2.9-6.9,7.7v8.5h-3.1V124z"/>
		<path class="st3" d="M407.4,123.6c6,0,9.2,4.4,9.2,10c0,5.5-3.2,9.9-9.2,9.9s-9.2-4.4-9.2-9.9
			C398.2,127.9,401.4,123.6,407.4,123.6z M407.4,140.7c3.3,0,5.9-2.6,5.9-7.2c0-4.6-2.6-7.2-5.9-7.2c-3.3,0-5.9,2.6-5.9,7.2
			C401.5,138.1,404.1,140.7,407.4,140.7z"/>
		<path class="st3" d="M436.8,143h-2.9v-3h-0.1c-1.3,2.4-3.5,3.5-6.2,3.5c-5,0-6.5-2.9-6.5-6.9V124h3.1v12.9c0,2.3,1.5,3.8,3.9,3.8
			c3.8,0,5.6-2.5,5.6-5.9V124h3.1V143z"/>
		<path class="st3" d="M442.3,124h3.1v2.6h0.1c1-2.1,3.4-3,6.1-3c5.8,0,8.7,4.6,8.7,10c0,5.4-2.9,9.9-8.7,9.9c-2,0-4.7-0.7-6.1-3
			h-0.1v9.8h-3.1V124z M451.1,126.3c-4.2,0-5.8,3.6-5.8,7.2c0,3.7,1.7,7.2,6,7.2c4.3,0,5.7-3.6,5.7-7.3
			C457,129.8,455.2,126.3,451.1,126.3z"/>
	</g>
</g>
<g>
	<path class="st4" d="M48.5,173.5c-1.1,1.5-2.9,2.1-4.6,2.1c-4.3,0-6.8-3.5-6.8-7.2c0-4.2,2.3-7.8,6.8-7.8c3.1,0,5.6,1.4,6.2,4.8
		h-1.9c-0.4-2.2-2.1-3.2-4.3-3.2c-3.5,0-4.9,3-4.9,6.1c0,3,1.7,5.7,4.9,5.7c3,0,4.7-2.1,4.6-4.7h-4.6v-1.6h6.3v7.6H49L48.5,173.5z"
		/>
	<path class="st4" d="M62.4,175.2h-1.6v-1.6h0c-0.7,1.3-1.9,1.9-3.4,1.9c-2.7,0-3.6-1.6-3.6-3.8v-6.8h1.7v7c0,1.3,0.8,2.1,2.1,2.1
		c2.1,0,3.1-1.4,3.1-3.3v-5.9h1.7V175.2z"/>
	<path class="st4" d="M67.9,163h-1.7v-2.1h1.7V163z M66.2,164.9h1.7v10.4h-1.7V164.9z"/>
	<path class="st4" d="M80.9,175.2h-1.7v-1.4h0c-0.6,1.1-1.9,1.6-3.3,1.6c-3.2,0-4.8-2.5-4.8-5.5c0-2.9,1.6-5.4,4.7-5.4
		c1.1,0,2.6,0.4,3.4,1.6h0v-5.3h1.7V175.2z M76.1,174c2.3,0,3.2-2,3.2-3.9c0-2-0.9-3.9-3.3-3.9c-2.3,0-3.1,2-3.1,4
		C72.9,172.1,73.9,174,76.1,174z"/>
	<path class="st4" d="M86.4,163h-1.7v-2.1h1.7V163z M84.7,164.9h1.7v10.4h-1.7V164.9z"/>
	<path class="st4" d="M90.2,164.9h1.6v1.7h0c0.7-1.3,1.9-1.9,3.4-1.9c2.7,0,3.6,1.6,3.6,3.8v6.8h-1.7v-7c0-1.3-0.8-2.1-2.1-2.1
		c-2.1,0-3.1,1.4-3.1,3.3v5.9h-1.7V164.9z"/>
	<path class="st4" d="M111.4,174.4c0,3.4-1.5,5.1-4.8,5.1c-1.9,0-4.2-0.8-4.3-3h1.7c0.1,1.2,1.6,1.7,2.7,1.7c2.2,0,3.1-1.6,3.1-3.9
		v-0.7h0c-0.6,1.3-1.9,1.9-3.2,1.9c-3.1,0-4.6-2.4-4.6-5.3c0-2.5,1.2-5.5,4.8-5.5c1.3,0,2.5,0.6,3.1,1.7h0v-1.5h1.6V174.4z
		 M109.7,169.8c0-1.8-0.8-3.7-3-3.7c-2.2,0-3.1,1.8-3.1,3.8c0,1.9,0.7,4,2.9,4C108.8,173.9,109.7,171.8,109.7,169.8z"/>
	<path class="st4" d="M121.8,164.9h1.7v1.4h0c0.6-1.1,1.9-1.6,3.3-1.6c3.2,0,4.8,2.5,4.8,5.5c0,2.9-1.6,5.4-4.7,5.4
		c-1.1,0-2.6-0.4-3.4-1.6h0v5.4h-1.7V164.9z M126.6,166.1c-2.3,0-3.2,2-3.2,3.9c0,2,0.9,3.9,3.3,3.9c2.3,0,3.1-2,3.1-4
		C129.8,168,128.8,166.1,126.6,166.1z"/>
	<path class="st4" d="M143.9,175.2c-0.3,0.2-0.7,0.3-1.2,0.3c-0.9,0-1.4-0.5-1.4-1.6c-0.9,1.1-2.2,1.6-3.7,1.6
		c-1.9,0-3.4-0.8-3.4-2.9c0-2.3,1.7-2.8,3.5-3.2c1.9-0.4,3.5-0.2,3.5-1.5c0-1.5-1.2-1.7-2.3-1.7c-1.4,0-2.5,0.4-2.6,2h-1.7
		c0.1-2.6,2.1-3.5,4.4-3.5c1.9,0,3.9,0.4,3.9,2.9v5.3c0,0.8,0,1.2,0.5,1.2c0.1,0,0.3,0,0.5-0.1V175.2z M141.1,169.9
		c-0.7,0.5-1.9,0.5-3.1,0.7c-1.1,0.2-2.1,0.6-2.1,1.9c0,1.1,1,1.5,2,1.5c2.3,0,3.2-1.4,3.2-2.3V169.9z"/>
	<path class="st4" d="M146.5,164.9h1.6v2.2h0c0.8-1.7,2-2.5,3.8-2.4v1.8c-2.7,0-3.8,1.6-3.8,4.2v4.6h-1.7V164.9z"/>
	<path class="st4" d="M156.7,164.9h2.1v1.5h-2.1v6.4c0,0.8,0.2,0.9,1.3,0.9h0.8v1.5h-1.3c-1.8,0-2.5-0.4-2.5-2.3v-6.6h-1.8v-1.5h1.8
		v-3.1h1.7V164.9z"/>
	<path class="st4" d="M161.8,164.9h1.6v1.7h0c0.7-1.3,1.9-1.9,3.4-1.9c2.7,0,3.6,1.6,3.6,3.8v6.8h-1.7v-7c0-1.3-0.8-2.1-2.1-2.1
		c-2.1,0-3.1,1.4-3.1,3.3v5.9h-1.7V164.9z"/>
	<path class="st4" d="M182.9,172c-0.5,2.3-2.1,3.5-4.4,3.5c-3.3,0-4.9-2.3-5-5.5c0-3.1,2-5.4,4.9-5.4c3.7,0,4.8,3.4,4.7,5.9h-7.8
		c-0.1,1.8,1,3.4,3.2,3.4c1.4,0,2.4-0.7,2.7-2H182.9z M181.2,169.1c-0.1-1.6-1.3-2.9-3-2.9c-1.8,0-2.9,1.4-3,2.9H181.2z"/>
	<path class="st4" d="M185.8,164.9h1.6v2.2h0c0.8-1.7,2-2.5,3.8-2.4v1.8c-2.8,0-3.8,1.6-3.8,4.2v4.6h-1.7V164.9z"/>
	<path class="st4" d="M194.7,172c0.1,1.5,1.4,2,2.8,2c1.1,0,2.5-0.2,2.5-1.5c0-1.3-1.7-1.5-3.4-1.9c-1.7-0.4-3.4-0.9-3.4-2.9
		c0-2.1,2.1-3,3.9-3c2.3,0,4.1,0.7,4.3,3.3h-1.7c-0.1-1.3-1.3-1.7-2.4-1.7c-1,0-2.2,0.3-2.2,1.3c0,1.2,1.8,1.4,3.4,1.8
		c1.7,0.4,3.4,0.9,3.4,3c0,2.5-2.3,3.3-4.4,3.3c-2.3,0-4.3-0.9-4.4-3.5H194.7z"/>
	<path class="st4" d="M213.8,164.9h2.1v1.5h-2.1v6.4c0,0.8,0.2,0.9,1.3,0.9h0.8v1.5h-1.3c-1.8,0-2.5-0.4-2.5-2.3v-6.6h-1.8v-1.5h1.8
		v-3.1h1.7V164.9z"/>
	<path class="st4" d="M223.3,164.6c3.3,0,5,2.4,5,5.4c0,3-1.7,5.4-5,5.4c-3.3,0-5-2.4-5-5.4C218.3,167,220,164.6,223.3,164.6z
		 M223.3,174c1.8,0,3.2-1.4,3.2-3.9c0-2.5-1.4-3.9-3.2-3.9c-1.8,0-3.2,1.4-3.2,3.9C220.1,172.6,221.5,174,223.3,174z"/>
	<path class="st4" d="M248.4,175.2h-1.8l-2.1-8.3h0l-2.1,8.3h-1.9l-3.3-10.4h1.9l2.4,8.5h0l2.1-8.5h1.9l2.2,8.5h0l2.3-8.5h1.8
		L248.4,175.2z"/>
	<path class="st4" d="M258.9,164.6c3.3,0,5,2.4,5,5.4c0,3-1.8,5.4-5,5.4c-3.3,0-5-2.4-5-5.4C253.9,167,255.6,164.6,258.9,164.6z
		 M258.9,174c1.8,0,3.2-1.4,3.2-3.9c0-2.5-1.4-3.9-3.2-3.9c-1.8,0-3.2,1.4-3.2,3.9C255.7,172.6,257.1,174,258.9,174z"/>
	<path class="st4" d="M267,164.9h1.6v2.2h0c0.8-1.7,2-2.5,3.8-2.4v1.8c-2.8,0-3.8,1.6-3.8,4.2v4.6H267V164.9z"/>
	<path class="st4" d="M274.9,160.9h1.7v8.5l4.7-4.5h2.3l-4.1,3.8l4.4,6.6h-2.2l-3.5-5.4l-1.6,1.5v3.9h-1.7V160.9z"/>
	<path class="st4" d="M287,166.4h-1.7v-1.5h1.7v-1.5c0-1.7,1-2.6,2.9-2.6c0.3,0,0.8,0.1,1.1,0.2v1.5c-0.3-0.1-0.7-0.1-1-0.1
		c-0.8,0-1.3,0.3-1.3,1.2v1.4h2v1.5h-2v8.9H287V166.4z"/>
	<path class="st4" d="M297.9,164.6c3.3,0,5,2.4,5,5.4c0,3-1.7,5.4-5,5.4c-3.3,0-5-2.4-5-5.4C292.8,167,294.6,164.6,297.9,164.6z
		 M297.9,174c1.8,0,3.2-1.4,3.2-3.9c0-2.5-1.4-3.9-3.2-3.9c-1.8,0-3.2,1.4-3.2,3.9C294.6,172.6,296.1,174,297.9,174z"/>
	<path class="st4" d="M305.9,164.9h1.6v2.2h0c0.8-1.7,2-2.5,3.8-2.4v1.8c-2.8,0-3.8,1.6-3.8,4.2v4.6h-1.7V164.9z"/>
	<path class="st4" d="M320.5,168.2c-0.3-1.3-1.2-2.1-2.6-2.1c-2.5,0-3.2,2-3.2,4.1c0,1.9,0.9,3.8,3,3.8c1.6,0,2.6-1,2.8-2.5h1.8
		c-0.4,2.5-2,4-4.6,4c-3.2,0-4.9-2.2-4.9-5.3c0-3.1,1.6-5.6,4.9-5.6c2.4,0,4.2,1.1,4.5,3.6H320.5z"/>
	<path class="st4" d="M334.1,172c-0.5,2.3-2.1,3.5-4.4,3.5c-3.3,0-4.9-2.3-5-5.5c0-3.1,2-5.4,4.9-5.4c3.7,0,4.8,3.4,4.7,5.9h-7.8
		c-0.1,1.8,1,3.4,3.2,3.4c1.4,0,2.4-0.7,2.7-2H334.1z M332.5,169.1c-0.1-1.6-1.3-2.9-3-2.9c-1.8,0-2.9,1.4-3,2.9H332.5z"/>
	<path class="st4" d="M344.9,172c0.1,1.5,1.4,2,2.8,2c1.1,0,2.5-0.2,2.5-1.5c0-1.3-1.7-1.5-3.4-1.9c-1.7-0.4-3.4-0.9-3.4-2.9
		c0-2.1,2.1-3,3.9-3c2.3,0,4.1,0.7,4.3,3.3h-1.7c-0.1-1.3-1.3-1.7-2.4-1.7c-1,0-2.2,0.3-2.2,1.3c0,1.2,1.8,1.4,3.4,1.8
		c1.7,0.4,3.4,0.9,3.4,3c0,2.5-2.3,3.3-4.4,3.3c-2.3,0-4.3-0.9-4.4-3.5H344.9z"/>
	<path class="st4" d="M359.4,164.6c3.3,0,5,2.4,5,5.4c0,3-1.7,5.4-5,5.4s-5-2.4-5-5.4C354.4,167,356.1,164.6,359.4,164.6z
		 M359.4,174c1.8,0,3.2-1.4,3.2-3.9c0-2.5-1.4-3.9-3.2-3.9c-1.8,0-3.2,1.4-3.2,3.9C356.2,172.6,357.6,174,359.4,174z"/>
	<path class="st4" d="M367.7,160.9h1.7v14.3h-1.7V160.9z"/>
	<path class="st4" d="M381.7,175.2h-1.6v-1.6h0c-0.7,1.3-1.9,1.9-3.4,1.9c-2.7,0-3.6-1.6-3.6-3.8v-6.8h1.7v7c0,1.3,0.8,2.1,2.1,2.1
		c2.1,0,3.1-1.4,3.1-3.3v-5.9h1.7V175.2z"/>
	<path class="st4" d="M387.7,164.9h2.1v1.5h-2.1v6.4c0,0.8,0.2,0.9,1.3,0.9h0.8v1.5h-1.3c-1.8,0-2.5-0.4-2.5-2.3v-6.6h-1.8v-1.5h1.8
		v-3.1h1.7V164.9z"/>
	<path class="st4" d="M394.6,163h-1.7v-2.1h1.7V163z M392.9,164.9h1.7v10.4h-1.7V164.9z"/>
	<path class="st4" d="M402.8,164.6c3.3,0,5,2.4,5,5.4c0,3-1.7,5.4-5,5.4c-3.3,0-5-2.4-5-5.4C397.7,167,399.5,164.6,402.8,164.6z
		 M402.8,174c1.8,0,3.2-1.4,3.2-3.9c0-2.5-1.4-3.9-3.2-3.9c-1.8,0-3.2,1.4-3.2,3.9C399.6,172.6,401,174,402.8,174z"/>
	<path class="st4" d="M410.9,164.9h1.6v1.7h0c0.7-1.3,1.9-1.9,3.4-1.9c2.7,0,3.6,1.6,3.6,3.8v6.8h-1.7v-7c0-1.3-0.8-2.1-2.1-2.1
		c-2.1,0-3.1,1.4-3.1,3.3v5.9h-1.7V164.9z"/>
	<path class="st4" d="M424.2,172c0.1,1.5,1.4,2,2.8,2c1.1,0,2.5-0.2,2.5-1.5c0-1.3-1.7-1.5-3.4-1.9c-1.7-0.4-3.4-0.9-3.4-2.9
		c0-2.1,2.1-3,3.9-3c2.3,0,4.1,0.7,4.3,3.3h-1.7c-0.1-1.3-1.3-1.7-2.4-1.7c-1,0-2.2,0.3-2.2,1.3c0,1.2,1.8,1.4,3.4,1.8
		c1.7,0.4,3.4,0.9,3.4,3c0,2.5-2.3,3.3-4.4,3.3c-2.3,0-4.3-0.9-4.4-3.5H424.2z"/>
	<path class="st4" d="M434.7,173h2.2v2.2h-2.2V173z"/>
</g>
<g>
</g>
<g>
</g>
<g>
</g>
<g>
</g>
<g>
</g>
<g>
</g>
<g>
</g>
<g>
</g>
<g>
</g>
<g>
</g>
<g>
</g>
<g>
</g>
</svg>
